<svg height="1.8in" viewBox="0 0 333.4 126.2" width="4.6in" xmlns="http://www.w3.org/2000/svg"><path d="m172.6 29c-4.9 5.8-8.6 7-13.8 7-3.6 0-8.5-2.9-13.9-2.9-8.5-.1-17.7 3.8-25.7 11.5s-20.3 26.7-20.5 49.6c-.1 18.4 8.3 22.8 18 22.9 11.7 0 19.9-4.4 24.2-13.1l10.7-27.9s-10.7 2.4-16.5 2.3h-16.9l.3-.9c4.4-2.7 8.4-4.5 18.2-5.8h13.4c4.7 0 9.7-.4 11.1-.4l.6.5s-3.6 8.1-6.8 16.5-4.8 13.7-7.6 18.7a52.5 52.5 0 0 1 -36.7 14.7c-18-.1-21.3-17.5-21.2-26.3.1-20.6 15.1-42 28-52.9 10.2-8.5 21.2-14.6 33.7-14.6 6.7.1 9.8 1.2 13.1 1.2s5.1-.1 7.7-1.1z" fill="#231f20"/><path d="m169.4 72.4c10.1 0 27.4-6.5 27.4-6.5 6.4-3.3 23.2-12.3 31.7-15.9s13.8-3.8 28.5-6.9 40.9-4 46.7-3c0 0 18 4.4 21.1 2.5 0 0 3.1-1 4.2-3.1s2.7-6.8 1.6-7-19.1-5.4-20.2-6.5-6.8-3.8-9.4-6.5c0 0-5.4-3.8-10.3-3.8" fill="none" stroke="#231f20" stroke-miterlimit="10" stroke-width="5"/><path d="m267.7 12s-8.5-9-12.8-9.5c0 0 19.6-2.6 27.6 9.8" fill="none" stroke="#231f20" stroke-linejoin="round" stroke-width="4.56"/><path d="m259.6 16.2c-23.4 13.8-42.9 9.8-52.6 7.6-16.5-3.7-86.7-15.1-121.4 3.7-4.9 1.8-31.9 11.4-34.7 12.2-4.5 1.4-27.3 3.6-35.2-1.1" fill="none" stroke="#231f20" stroke-miterlimit="10" stroke-width="5"/><g fill="#231f20"><path d="m169.2 102.4 5.1-.5c0 3.7 3.3 6.1 8.4 6.1s6.7-1.5 6.7-4.4-2.2-3.9-8.9-5.1-10.8-3.4-10.8-8.6 5-7.8 11.9-7.8c8.4 0 12 3.6 12.1 7.9l-4.9.7c-.3-3.1-2.4-5.1-7.4-5.1s-6 1.7-6 3.9 2 3.5 7.4 4.5c7.9 1.5 12.3 3.5 12.3 9.1s-4.2 8.7-12.4 8.7-13.9-3.8-13.5-9.4z"/><path d="m201 82.7h6.6l15 21.4v-21.4h5.2v28.4h-6.4l-15.3-21.6v21.6h-5.1z"/><path d="m233.3 97.3c0-9.1 6-15.2 15.7-15.2s12.6 5 12.6 8.5c0 .5-.1 1.2-.1 1.6l-5 .6c0-.2.1-.8.1-1.5 0-2.5-2-5.5-7.8-5.5s-9.6 4.6-9.6 11.3 3 10.8 9.6 10.8 8.3-2.5 8.3-6.4a4.9 4.9 0 0 0 -.1-1.2l4.7.4a5.5 5.5 0 0 1 .2 1.8c0 5.5-4.3 9.3-13.1 9.3s-15.5-5.3-15.5-14.5z"/><path d="m267.3 82.7h15.4c7.3 0 10.8 3 10.8 8.4s-2.9 6.7-7.2 7.1c3.9.3 4.9 3.2 5.6 7s.8 4.6 2.1 5.9h-6.2c-.8-1-1.3-2.9-1.8-6s-1.3-5.2-5.2-5.2h-7.9v11.2h-5.6zm13.7 13.3c4.9 0 6.7-1.5 6.7-4.6s-1.7-4.7-6.6-4.7h-8.2v9.3z"/></g><path d="m169.4 118.4h124.2" fill="none" stroke="#231f20" stroke-miterlimit="10" stroke-width="3.99"/><path d="m18.3 39.9c-23.1-7-15.7-27.7-14.3-31.3" fill="none" stroke="#231f20" stroke-linecap="round" stroke-miterlimit="10" stroke-width="3.5"/><path d="m19.2 38.4s-12.1-6.1-13.2-8.5l7.4 9.6" fill="#231f20"/><path d="m11 35.7c1.9 0-8.5-6.9-8.5-6.9l1.6-3.9s5.1 10.8 6.9 10.8" fill="#231f20"/><path d="m5.3 32 .9-2.1 2.2 2.3" fill="none" stroke="#231f20" stroke-linecap="round" stroke-miterlimit="10" stroke-width=".5"/></svg>